<svg width="179" height="179" viewBox="0 0 179 179" fill="none" xmlns="http://www.w3.org/2000/svg">
<circle cx="89.5" cy="89.5" r="89.5" fill="#DBC6F1"/>
<path d="M176 90C176 101.294 173.763 112.477 169.416 122.911C165.069 133.345 158.697 142.825 150.665 150.811C142.632 158.797 133.097 165.132 122.602 169.454C112.107 173.776 100.859 176 89.5 176C78.1406 176 66.8925 173.776 56.3979 169.454C45.9032 165.132 36.3675 158.797 28.3353 150.811C20.303 142.825 13.9314 133.345 9.58442 122.911C5.23739 112.477 3 101.294 3 90" stroke="#2E1E30" stroke-width="6" stroke-linecap="round"/>
<path d="M37.0572 63.7417C35.808 68.5294 35.6658 73.6349 36.6308 79.0584" stroke="#AE97E5" stroke-width="18"/>
<path d="M36.6311 79.0569C38.5622 91.3171 47.3846 100.369 59.5333 105.314C66.8494 108.288 75.7141 107.469 83.4566 107.188C85.5587 107.113 87.2082 106.313 88.4051 104.787C91.3525 101.046 93.9708 98.0803 96.2598 95.8885" stroke="#AE97E5" stroke-width="18"/>
<path d="M96.2598 95.8887C98.3843 96.1879 99.4802 97.1417 99.5476 98.75C99.7608 103.149 99.6598 105.483 96.6749 108.995C93.4508 112.795 89.9199 116.603 86.0823 120.418" stroke="#AE97E5" stroke-width="18"/>
<path d="M86.0823 120.419C77.1428 120.785 71.9961 124.327 70.6421 131.045" stroke="#AE97E5" stroke-width="18"/>
<path d="M70.6414 131.045C69.3076 136.411 71.6363 140.325 75.5787 143.108C83.6691 148.808 92.399 145.386 98.6492 138.878C103.781 133.544 108.703 128.016 113.416 122.293C117.77 117.008 119.464 112.912 118.443 106.359" stroke="#AE97E5" stroke-width="18"/>
<path d="M118.444 106.358L118.421 90.1096" stroke="#AE97E5" stroke-width="18"/>
<path d="M118.421 90.1107C119.655 78.6652 110.544 70.3504 99.2891 73.5821" stroke="#AE97E5" stroke-width="18"/>
<path d="M99.2894 73.5812C95.9536 74.4071 93.4432 76.2405 91.5132 78.1706C87.8178 81.866 84.7881 84.417 82.4242 85.8233C65.4242 95.8998 47.3695 70.529 65.7048 60.0037" stroke="#AE97E5" stroke-width="18"/>
<path d="M65.7046 60.0041C67.6421 59.0316 70.0958 58.5528 73.0656 58.5678C83.9126 58.6052 94.7597 58.6501 105.607 58.7024C111.846 58.7361 117.905 55.3473 117.052 48.2556" stroke="#AE97E5" stroke-width="18"/>
<path d="M117.053 48.2553C117.513 41.2421 110.332 37.1352 104.216 37.1015C95.2842 37.0567 86.3522 37.023 77.4203 37.0006C70.4258 36.9856 65.1407 37.498 61.5649 38.5378C49.4237 42.0912 40.0994 50.8355 37.0581 63.7404" stroke="#AE97E5" stroke-width="18"/>
<path d="M117.053 48.2556L113.069 49.1309" stroke="#AE97E5" stroke-width="2"/>
<path d="M113.069 49.1318C110.361 50.628 107.784 51.3686 105.338 51.3536C94.0194 51.2863 82.7011 51.29 71.3828 51.3648C68.6224 51.3873 66.0939 52.083 63.7973 53.452C63.4511 53.6592 63.1569 53.9429 62.937 54.2812C62.7172 54.6196 62.5776 55.0037 62.5289 55.4043C62.4802 55.8048 62.5236 56.2112 62.656 56.5924C62.7883 56.9736 63.006 57.3195 63.2924 57.6037L65.7049 60.0051" stroke="#AE97E5" stroke-width="2"/>
<path d="M74.2107 132.919C76.1706 129.036 79.0432 126.4 82.8285 125.008C83.9655 124.597 84.7809 124.073 85.2747 123.437C86.2023 122.248 86.4716 121.242 86.0826 120.419" stroke="#AE97E5" stroke-width="2"/>
<path d="M43.2401 72.347C43.2401 71.6714 42.9717 71.0236 42.4941 70.5459C42.0164 70.0682 41.3685 69.7998 40.6929 69.7998C40.3584 69.7998 40.0272 69.8657 39.7182 69.9937C39.4091 70.1217 39.1283 70.3093 38.8918 70.5459C38.6553 70.7824 38.4676 71.0632 38.3396 71.3722C38.2116 71.6813 38.1458 72.0125 38.1458 72.347C38.1458 72.6815 38.2116 73.0127 38.3396 73.3218C38.4676 73.6308 38.6553 73.9116 38.8918 74.1481C39.1283 74.3846 39.4091 74.5723 39.7182 74.7003C40.0272 74.8283 40.3584 74.8942 40.6929 74.8942C41.3685 74.8942 42.0164 74.6258 42.4941 74.1481C42.9717 73.6704 43.2401 73.0225 43.2401 72.347Z" stroke="#AE97E5" stroke-width="18"/>
<path d="M117.053 48.255L113.069 49.1303C111.566 44.2229 108.704 41.7319 104.485 41.6571C95.673 41.5 85.6937 41.5561 74.5474 41.8254C68.7574 41.96 64.2839 42.6034 61.127 43.7554C52.0829 47.0544 44.7106 53.9778 43.005 63.9309C42.9762 64.114 42.8868 64.2826 42.7509 64.4104C42.6149 64.5383 42.44 64.6182 42.2532 64.6378C40.5252 64.8248 38.7934 64.5256 37.0579 63.7401C41.2545 50.4918 49.4235 42.0909 61.5647 38.5376C65.1404 37.4978 70.4256 36.9854 77.42 37.0003C86.352 37.0228 95.284 37.0564 104.216 37.1013C110.331 37.135 117.513 41.2419 117.053 48.255Z" fill="#AE97E5"/>
<path d="M113.069 49.1311C110.361 50.6272 107.784 51.3678 105.337 51.3529C94.0191 51.2855 82.7008 51.2893 71.3825 51.3641C68.6221 51.3865 66.0936 52.0822 63.7971 53.4512C63.4509 53.6585 63.1566 53.9421 62.9368 54.2805C62.7169 54.6189 62.5773 55.003 62.5286 55.4035C62.4799 55.8041 62.5234 56.2105 62.6557 56.5917C62.788 56.9729 63.0057 57.3188 63.2921 57.603L65.7046 60.0043C47.3694 70.5297 65.4241 95.9005 82.424 85.824C84.7879 84.4176 87.8176 81.8667 91.5131 78.1712C93.4431 76.2412 96.0352 74.7114 99.2893 73.5818L100.658 76.4881C100.815 76.8172 101.077 76.9855 101.444 76.993C108.438 77.1277 112.691 80.4603 114.202 86.991C114.774 89.4596 115.863 90.5032 118.421 90.1104L118.444 106.359C116.05 107.57 114.52 108.618 113.854 109.5C108.528 116.615 102.891 123.489 96.9441 130.125C93.1364 134.374 89.987 136.981 87.4959 137.946C82.5661 139.861 78.1376 138.185 74.2102 132.919C76.1701 129.036 79.0427 126.399 82.828 125.008C83.965 124.596 84.7804 124.073 85.2742 123.437C86.2018 122.248 86.4711 121.241 86.0821 120.419C89.9197 116.603 93.4506 112.796 96.6748 108.995C99.6596 105.483 99.7606 103.149 99.5474 98.7506C99.48 97.1423 98.3841 96.1885 96.2596 95.8893L99.4913 92.7249C99.7725 92.448 99.984 92.1081 100.108 91.7334C100.232 91.3586 100.266 90.9597 100.205 90.5696C100.145 90.1795 99.9929 89.8092 99.7615 89.4894C99.53 89.1696 99.2259 88.9094 98.8741 88.7302C97.363 87.9597 95.9454 88.1131 94.6213 89.1903C91.4944 91.7337 88.4684 94.3894 85.5435 97.1573C83.6134 98.9751 81.3206 99.9775 78.665 100.164C62.0877 101.339 50.2308 94.842 43.0942 80.6735C41.411 77.3296 39.6381 77.4418 36.6308 79.0577C35.6658 73.6342 35.808 68.5286 37.0572 63.7409C38.7928 64.5264 40.5245 64.8256 42.2526 64.6386C42.4394 64.619 42.6143 64.5391 42.7502 64.4112C42.8862 64.2834 42.9755 64.1148 43.0044 63.9317C44.71 53.9786 52.0823 47.0552 61.1264 43.7562C64.2833 42.6042 68.7568 41.9608 74.5468 41.8262C85.6931 41.5569 95.6724 41.5008 104.485 41.6579C108.704 41.7327 111.565 44.2237 113.069 49.1311ZM43.24 72.3475C43.24 71.6719 42.9717 71.024 42.494 70.5463C42.0163 70.0687 41.3684 69.8003 40.6929 69.8003C40.3584 69.8003 40.0271 69.8662 39.7181 69.9942C39.4091 70.1222 39.1283 70.3098 38.8917 70.5463C38.6552 70.7829 38.4676 71.0637 38.3396 71.3727C38.2116 71.6817 38.1457 72.013 38.1457 72.3475C38.1457 72.682 38.2116 73.0132 38.3396 73.3223C38.4676 73.6313 38.6552 73.9121 38.8917 74.1486C39.1283 74.3851 39.4091 74.5728 39.7181 74.7008C40.0271 74.8288 40.3584 74.8947 40.6929 74.8947C41.3684 74.8947 42.0163 74.6263 42.494 74.1486C42.9717 73.6709 43.24 73.023 43.24 72.3475Z" fill="#AE97E5"/>
<path d="M117.053 48.2566C117.905 55.3483 111.846 58.7371 105.607 58.7034C94.76 58.651 83.913 58.6062 73.0659 58.5688C70.0961 58.5538 67.6424 59.0326 65.7049 60.005L63.2924 57.6037C63.006 57.3195 62.7883 56.9736 62.656 56.5924C62.5236 56.2112 62.4802 55.8048 62.5289 55.4043C62.5776 55.0037 62.7172 54.6196 62.937 54.2812C63.1569 53.9429 63.4511 53.6592 63.7973 53.452C66.0939 52.083 68.6224 51.3873 71.3828 51.3648C82.7011 51.29 94.0194 51.2863 105.338 51.3536C107.784 51.3686 110.361 50.628 113.069 49.1318L117.053 48.2566Z" fill="#AE97E5"/>
<path d="M40.6929 74.8942C42.0997 74.8942 43.2401 73.7538 43.2401 72.347C43.2401 70.9402 42.0997 69.7998 40.6929 69.7998C39.2862 69.7998 38.1458 70.9402 38.1458 72.347C38.1458 73.7538 39.2862 74.8942 40.6929 74.8942Z" fill="#AE97E5"/>
<path d="M118.421 90.1107C115.863 90.5034 114.774 89.4599 114.202 86.9912C112.691 80.4606 108.438 77.1279 101.444 76.9933C101.077 76.9858 100.815 76.8175 100.658 76.4883L99.2891 73.5821C110.544 70.3504 119.655 78.6652 118.421 90.1107Z" fill="#AE97E5"/>
<path d="M96.2598 95.8891C93.9707 98.081 91.3525 101.047 88.4051 104.787C87.2082 106.313 85.5587 107.114 83.4566 107.189C75.7141 107.469 66.8494 108.288 59.5333 105.315C47.3846 100.37 39.7506 91.6176 36.6311 79.0575C39.6383 77.4417 41.4113 77.3295 43.0944 80.6734C50.231 94.8418 62.088 101.339 78.6652 100.164C81.3209 99.9773 83.6137 98.9749 85.5437 97.1571C88.4687 94.3892 91.4946 91.7336 94.6216 89.1901C95.9457 88.1129 97.3633 87.9596 98.8744 88.7301C99.2261 88.9093 99.5303 89.1695 99.7617 89.4893C99.9932 89.8091 100.145 90.1793 100.206 90.5694C100.266 90.9596 100.233 91.3585 100.108 91.7332C99.9842 92.1079 99.7728 92.4478 99.4915 92.7248L96.2598 95.8891Z" fill="#AE97E5"/>
<path d="M118.443 106.359C119.464 112.912 117.769 117.008 113.416 122.293C108.703 128.016 103.781 133.544 98.6488 138.878C92.3987 145.386 83.6687 148.808 75.5783 143.108C71.636 140.325 69.9902 136.304 70.641 131.045L74.2093 132.919C78.1367 138.186 82.5653 139.862 87.4951 137.946C89.9861 136.981 93.1355 134.374 96.9432 130.125C102.89 123.49 108.527 116.615 113.853 109.501C114.519 108.618 116.049 107.571 118.443 106.359Z" fill="#AE97E5"/>
<path d="M86.0823 120.419C86.4713 121.242 86.202 122.248 85.2744 123.437C84.7806 124.073 83.9652 124.597 82.8282 125.008C79.0429 126.4 76.1703 129.036 74.2104 132.919L70.6421 131.045C71.9961 124.327 77.1428 120.785 86.0823 120.419Z" fill="#AE97E5"/>
<path d="M45.0316 62.0933C43.8126 66.7648 43.6739 71.7466 44.6155 77.0386" stroke="#2E1E30" stroke-width="18"/>
<path d="M44.6157 77.0371C46.5 89 55.1085 97.8328 66.9626 102.658C74.1013 105.559 82.7509 104.76 90.3057 104.486C92.3568 104.413 93.9663 103.632 95.1342 102.143C98.0101 98.4934 100.565 95.5992 102.798 93.4605" stroke="#2E1E30" stroke-width="18"/>
<path d="M102.798 93.4607C104.871 93.7527 105.94 94.6833 106.006 96.2527C106.214 100.545 106.116 102.822 103.203 106.249C100.057 109.957 96.612 113.672 92.8674 117.395" stroke="#2E1E30" stroke-width="18"/>
<path d="M92.8678 117.396C84.1451 117.754 79.1232 121.21 77.802 127.765" stroke="#2E1E30" stroke-width="18"/>
<path d="M77.8014 127.765C76.5 133 78.7722 136.82 82.619 139.535C90.5132 145.097 99.0315 141.758 105.13 135.407C110.137 130.203 114.94 124.809 119.539 119.225C123.787 114.068 125.44 110.071 124.444 103.677" stroke="#2E1E30" stroke-width="18"/>
<path d="M124.444 103.676L124.423 87.8218" stroke="#2E1E30" stroke-width="18"/>
<path d="M124.423 87.8229C125.627 76.655 116.736 68.5418 105.755 71.6951" stroke="#2E1E30" stroke-width="18"/>
<path d="M105.755 71.694C102.5 72.5 100.05 74.2889 98.1673 76.1722C94.5614 79.778 91.6052 82.2671 89.2986 83.6393C72.7109 93.4715 55.094 68.7159 72.9846 58.4458" stroke="#2E1E30" stroke-width="18"/>
<path d="M72.9841 58.4465C74.8747 57.4976 77.2688 57.0304 80.1666 57.045C90.7506 57.0815 101.335 57.1253 111.919 57.1764C118.006 57.2092 123.919 53.9027 123.087 46.9829" stroke="#2E1E30" stroke-width="18"/>
<path d="M123.088 46.9824C123.536 40.1393 116.529 36.1319 110.562 36.0991C101.847 36.0553 93.1312 36.0225 84.4159 36.0006C77.591 35.986 72.4341 36.486 68.945 37.5006C57.0982 40.9677 48 49.5 45.0325 62.0919" stroke="#2E1E30" stroke-width="18"/>
<path d="M81.2839 129.593C83.1964 125.805 85.9993 123.232 89.6927 121.874C90.8022 121.473 91.5979 120.962 92.0796 120.341C92.9847 119.181 93.2475 118.199 92.8679 117.396" stroke="#FEF5EA" stroke-width="2"/>
<path d="M51.0646 70.4898C51.0646 69.8306 50.8027 69.1985 50.3366 68.7324C49.8705 68.2663 49.2383 68.0044 48.5792 68.0044C48.2528 68.0044 47.9296 68.0687 47.628 68.1936C47.3265 68.3185 47.0525 68.5016 46.8217 68.7324C46.5909 68.9632 46.4078 69.2371 46.2829 69.5387C46.158 69.8402 46.0938 70.1634 46.0938 70.4898C46.0938 70.8162 46.158 71.1394 46.2829 71.4409C46.4078 71.7425 46.5909 72.0165 46.8217 72.2473C47.0525 72.4781 47.3265 72.6611 47.628 72.786C47.9296 72.9109 48.2528 72.9752 48.5792 72.9752C49.2383 72.9752 49.8705 72.7134 50.3366 72.2473C50.8027 71.7812 51.0646 71.149 51.0646 70.4898Z" stroke="#2E1E30" stroke-width="18"/>
<path d="M123.087 46.9821L119.2 47.8361C117.733 43.0478 114.941 40.6171 110.825 40.5441C102.226 40.3908 92.4887 40.4456 81.6127 40.7084C75.963 40.8398 71.598 41.4675 68.5177 42.5916C59.6929 45.8106 52.4994 52.5661 50.8352 62.2778C50.807 62.4565 50.7198 62.621 50.5872 62.7457C50.4545 62.8705 50.2838 62.9485 50.1016 62.9676C48.4154 63.1501 46.7257 62.8581 45.0322 62.0917C49.1271 49.1646 57.098 40.9675 68.9447 37.5003C72.4338 36.4857 77.5908 35.9857 84.4156 36.0003C93.131 36.0222 101.846 36.0551 110.562 36.0988C116.529 36.1317 123.536 40.139 123.087 46.9821Z" fill="#FFFFFE"/>
<path d="M119.2 47.8372C116.557 49.297 114.043 50.0197 111.656 50.0051C100.612 49.9394 89.5683 49.943 78.5245 50.016C75.831 50.0379 73.3639 50.7168 71.123 52.0525C70.7852 52.2548 70.4981 52.5315 70.2835 52.8617C70.069 53.1919 69.9328 53.5667 69.8853 53.9575C69.8378 54.3484 69.8802 54.7449 70.0093 55.1168C70.1384 55.4888 70.3508 55.8263 70.6303 56.1036L72.9843 58.4467C55.0937 68.7168 72.7106 93.4724 89.2982 83.6403C91.6048 82.268 94.561 79.7789 98.1669 76.1731C100.05 74.2899 102.579 72.7972 105.755 71.695L107.09 74.5307C107.244 74.8519 107.499 75.0161 107.857 75.0234C114.682 75.1548 118.831 78.4067 120.306 84.779C120.864 87.1877 121.926 88.206 124.423 87.8228L124.444 103.677C122.109 104.859 120.616 105.881 119.966 106.743C114.769 113.684 109.269 120.392 103.466 126.867C99.7509 131.013 96.6778 133.557 94.2472 134.498C89.4369 136.367 85.1157 134.732 81.2836 129.593C83.196 125.805 85.999 123.232 89.6924 121.874C90.8019 121.473 91.5975 120.962 92.0793 120.341C92.9844 119.181 93.2472 118.199 92.8676 117.396C96.6122 113.673 100.057 109.958 103.203 106.25C106.116 102.823 106.214 100.545 106.006 96.2535C105.941 94.6841 104.871 93.7535 102.798 93.4615L105.952 90.3739C106.226 90.1036 106.432 89.772 106.554 89.4063C106.675 89.0407 106.707 88.6515 106.648 88.2708C106.59 87.8901 106.441 87.5289 106.215 87.2168C105.989 86.9048 105.693 86.6509 105.349 86.4761C103.875 85.7242 102.492 85.8739 101.2 86.9249C98.1487 89.4067 95.1961 91.998 92.342 94.6987C90.4588 96.4725 88.2216 97.4506 85.6304 97.633C69.4551 98.779 57.8857 92.4396 50.9221 78.6147C49.2798 75.3519 47.5499 75.4614 44.6155 77.038C43.6739 71.746 43.8126 66.7643 45.0316 62.0927C46.725 62.8591 48.4148 63.1511 50.101 62.9686C50.2832 62.9495 50.4539 62.8715 50.5865 62.7468C50.7192 62.622 50.8064 62.4576 50.8346 62.2788C52.4988 52.5671 59.6923 45.8116 68.5171 42.5926C71.5974 41.4685 75.9624 40.8408 81.6121 40.7094C92.488 40.4466 102.225 40.3919 110.824 40.5452C114.941 40.6181 117.733 43.0488 119.2 47.8372ZM51.0645 70.4906C51.0645 69.8314 50.8026 69.1992 50.3365 68.7331C49.8704 68.267 49.2382 68.0051 48.5791 68.0051C48.2527 68.0051 47.9295 68.0694 47.6279 68.1943C47.3264 68.3192 47.0524 68.5023 46.8216 68.7331C46.5908 68.9639 46.4078 69.2379 46.2828 69.5394C46.1579 69.841 46.0937 70.1642 46.0937 70.4906C46.0937 70.817 46.1579 71.1402 46.2828 71.4417C46.4078 71.7432 46.5908 72.0172 46.8216 72.248C47.0524 72.4788 47.3264 72.6619 47.6279 72.7868C47.9295 72.9117 48.2527 72.976 48.5791 72.976C49.2382 72.976 49.8704 72.7141 50.3365 72.248C50.8026 71.7819 51.0645 71.1497 51.0645 70.4906Z" fill="#FDEAD5"/>
<path d="M123.087 46.9839C123.919 53.9036 118.007 57.2102 111.919 57.1774C101.335 57.1263 90.7511 57.0825 80.1671 57.046C77.2693 57.0314 74.8751 57.4985 72.9846 58.4474L70.6306 56.1044C70.3511 55.827 70.1387 55.4895 70.0096 55.1176C69.8805 54.7456 69.8381 54.3491 69.8856 53.9583C69.9331 53.5674 70.0694 53.1926 70.2839 52.8624C70.4984 52.5323 70.7855 52.2555 71.1233 52.0533C73.3642 50.7175 75.8313 50.0387 78.5248 50.0168C89.5686 49.9438 100.612 49.9401 111.656 50.0058C114.043 50.0204 116.558 49.2978 119.2 47.8379L123.087 46.9839Z" fill="#F6C49E"/>
<path d="M48.5792 72.9752C49.9518 72.9752 51.0646 71.8625 51.0646 70.4898C51.0646 69.1172 49.9518 68.0044 48.5792 68.0044C47.2065 68.0044 46.0938 69.1172 46.0938 70.4898C46.0938 71.8625 47.2065 72.9752 48.5792 72.9752Z" fill="#FDEAD5"/>
<path d="M124.423 87.8229C121.926 88.2062 120.864 87.1879 120.306 84.7791C118.831 78.4068 114.682 75.155 107.857 75.0236C107.499 75.0163 107.244 74.8521 107.09 74.5309L105.755 71.6951C116.736 68.5418 125.627 76.655 124.423 87.8229Z" fill="#FFFFFE"/>
<path d="M102.798 93.4612C100.565 95.5999 98.0101 98.4941 95.1342 102.144C93.9663 103.633 92.3568 104.414 90.3057 104.487C82.7509 104.761 74.1013 105.56 66.9626 102.658C55.1085 97.8335 47.6595 89.2933 44.6157 77.0378C47.55 75.4611 49.28 75.3516 50.9223 78.6144C57.8859 92.4393 69.4553 98.7788 85.6305 97.6328C88.2218 97.4503 90.459 96.4722 92.3422 94.6985C95.1963 91.9977 98.1488 89.4065 101.2 86.9247C102.492 85.8736 103.875 85.724 105.35 86.4758C105.693 86.6506 105.99 86.9045 106.215 87.2166C106.441 87.5286 106.59 87.8899 106.649 88.2705C106.707 88.6512 106.675 89.0404 106.554 89.4061C106.433 89.7717 106.226 90.1034 105.952 90.3736L102.798 93.4612Z" fill="#F6C49E"/>
<path d="M124.444 103.677C125.44 110.071 123.787 114.068 119.539 119.225C114.94 124.809 110.137 130.203 105.13 135.407C99.0313 141.758 90.513 145.097 82.6188 139.535C78.772 136.82 77.1662 132.896 77.8012 127.765L81.283 129.593C85.1151 134.732 89.4363 136.367 94.2466 134.499C96.6772 133.557 99.7502 131.013 103.466 126.867C109.269 120.393 114.769 113.685 119.966 106.743C120.615 105.882 122.108 104.86 124.444 103.677Z" fill="#F6C49E"/>
<path d="M92.8678 117.396C93.2473 118.199 92.9846 119.18 92.0795 120.341C91.5977 120.961 90.8021 121.472 89.6926 121.874C85.9991 123.232 83.1962 125.805 81.2838 129.593L77.802 127.764C79.1232 121.21 84.1451 117.753 92.8678 117.396Z" fill="#FFFFFE"/>
<path d="M74.8442 73.3701C77.9547 78.5 84.6988 77.0161 88.9074 72.9321" stroke="#857291" stroke-width="2"/>
<path d="M88.9076 72.9323L96.7613 66.4943C97.1293 66.1951 97.0718 66.0418 96.5888 66.0345C91.4297 65.9615 86.2858 66.0053 81.1573 66.1659C76.2473 66.3082 72.1785 69 74.8445 73.3703" stroke="#6E5B8B" stroke-width="2"/>
<path d="M88.9077 72.9321C84.1778 71.4868 79.4901 71.6328 74.8446 73.37C72.8898 68.1145 76.2475 66.3079 81.1575 66.1656C86.286 66.005 91.4298 65.9612 96.589 66.0342C97.0719 66.0415 97.1294 66.1948 96.7614 66.4941L88.9077 72.9321Z" fill="#AE97E5"/>
<path d="M88.9074 72.9327C84.6988 77.0167 78.9378 78.5715 74.8442 73.3707C79.4898 71.6335 84.1775 71.4875 88.9074 72.9327Z" fill="#DBC6F1"/>
</svg>
