<svg width="88" height="50" viewBox="0 0 88 50" fill="none" xmlns="http://www.w3.org/2000/svg">
<path d="M37.6877 4.073L37.7484 16.8404C37.7484 16.9982 37.8031 17.0205 37.9123 16.9072C38.149 16.6583 38.3645 16.2486 38.5345 16.0635C41.1656 13.2077 45.73 13.3049 48.5493 15.7934C48.6302 15.8642 48.7152 15.8693 48.8042 15.8086C54.4156 11.9149 61.9631 13.32 65.7779 18.9951C65.8365 19.0841 65.9094 19.0973 65.9964 19.0346C66.3605 18.7675 66.576 18.4276 66.6428 18.0149" stroke="#857291" stroke-width="2"/>
<path d="M29.0598 5.11694C29.0274 11.9473 28.9981 18.815 28.9718 25.7202C28.9597 28.6538 29.9409 31.0554 31.9156 32.9248C34.2301 35.1159 37.0353 36.0183 40.3311 35.6319" stroke="#927167" stroke-width="2"/>
<path d="M40.3308 35.6318C43.3322 35.4922 45.314 34.0962 47.0347 31.8201C47.3442 31.4073 47.8632 31.1464 48.2213 31.635C53.517 38.873 63.374 35.5681 65.1767 27.4773C65.1986 27.3803 65.2481 27.2917 65.3194 27.2224C65.896 26.668 66.4766 26.7105 67.0613 27.3498" stroke="#968483" stroke-width="2"/>
<path d="M67.0615 27.3501C67.1141 31.961 67.1212 36.5941 67.0828 41.2495C67.0666 43.042 67.8546 44.2671 69.4469 44.9246C70.3674 45.303 71.2404 45.2109 72.0659 44.6485" stroke="#927167" stroke-width="2"/>
<path d="M72.0659 44.6483C72.9581 44.0049 73.4174 43.0813 73.4437 41.8775C73.4781 40.2569 73.4781 38.6313 73.4437 37.0006C73.4255 36.1964 73.6046 35.4073 74.5545 35.4802C77.4921 35.7088 79.9857 34.9491 82.0352 33.201C84.1515 31.3963 85.3229 28.9776 85.5495 25.9448" stroke="#968483" stroke-width="2"/>
<path d="M85.5493 25.9447C85.2984 22.0359 83.6384 19.2489 80.5692 17.5838C78.6694 16.554 76.7221 16.1433 74.7272 16.3517C72.5179 16.5823 70.6039 17.5686 68.9854 19.3106" stroke="#978F97" stroke-width="2"/>
<path d="M68.9854 19.3108C68.0183 20.5429 67.3466 21.8964 66.9703 23.3714C66.8024 24.0289 66.3057 24.2767 65.4802 24.1149" stroke="#968483" stroke-width="2"/>
<path d="M65.4803 24.1149C63.6554 18.0554 59.5877 15.4808 53.2774 16.3913C52.7614 16.4641 52.0705 16.7565 51.2046 17.2683" stroke="#978F97" stroke-width="2"/>
<path d="M51.2045 17.2683L48.6401 19.1438" stroke="#968483" stroke-width="2"/>
<path d="M48.64 19.1438C48.2212 19.0083 47.9693 18.8848 47.8844 18.7736C46.0908 16.3609 43.1713 15.3989 40.6555 17.4686C40.5118 17.5839 40.3995 17.7508 40.3186 17.9693" stroke="#978F97" stroke-width="2"/>
<path d="M40.3188 17.9692C39.7968 19.1164 39.7776 20.1594 40.2611 21.0981C40.9318 22.4031 42.6313 22.3545 43.5236 23.4288C43.7704 23.7263 43.9889 24.0135 44.1791 24.2907" stroke="#927167" stroke-width="2"/>
<path d="M44.1788 24.2909C44.5814 25.608 44.5197 26.7895 43.9937 27.8355C42.2304 31.3468 37.0288 30.8976 35.6297 27.5077C35.3323 26.7895 35.1867 25.5776 35.1927 23.8721C35.219 17.7397 35.2109 11.6074 35.1685 5.4751" stroke="#968483" stroke-width="2"/>
<path d="M35.1689 5.47522C35.2417 3.62095 33.9398 2.44952 32.1492 2.45559C30.6723 2.46166 29.6425 3.34883 29.0598 5.11711" stroke="#978F97" stroke-width="2"/>
<path d="M35.1689 5.47502C34.6226 5.77243 34.2402 5.48412 33.9732 4.97427C33.2357 3.57523 31.9975 3.06538 30.8716 4.47657C30.6167 4.79623 30.3628 5.04509 30.1099 5.22313" stroke="#FEF5EA" stroke-width="2"/>
<path d="M30.1099 5.22326C29.7052 5.05331 29.3552 5.01791 29.0598 5.11704" stroke="#FBE2CE" stroke-width="2"/>
<path d="M44.179 24.2908C45.0955 24.4061 45.5163 24.1542 45.4415 23.5351C45.1805 21.3865 41.7269 21.0071 41.1047 18.7432" stroke="#FAD7BA" stroke-width="2"/>
<path d="M41.1047 18.743C44.9377 15.2105 46.7859 20.9645 48.367 20.139C48.5268 20.0561 48.631 19.9144 48.6796 19.7141C48.7464 19.4532 48.7332 19.263 48.6401 19.1436" stroke="#FEF5EA" stroke-width="2"/>
<path d="M51.2047 17.2683C51.1076 18.1241 51.6933 18.1909 52.3397 17.9754C58.2818 15.9998 63.6079 19.5505 64.3454 25.7111C64.3606 25.8378 64.4253 25.9532 64.5254 26.0323C64.6255 26.1113 64.7528 26.1475 64.8795 26.133C65.3206 26.0864 65.53 25.8224 65.5077 25.3409C65.4854 24.8857 65.4763 24.477 65.4804 24.1148" stroke="#FEF5EA" stroke-width="2"/>
<path d="M68.9854 19.3109C69.1614 19.6873 69.4274 19.9199 69.7835 20.0089C69.8826 20.0352 69.9737 20.018 70.0566 19.9574C71.5649 18.877 72.6939 17.9028 74.6301 17.6539C79.6618 17.0106 83.7527 20.7221 84.387 25.5717C84.4355 25.942 84.5256 26.1615 84.6571 26.2303C84.8614 26.3375 85.1588 26.2424 85.5493 25.945" stroke="#FEF5EA" stroke-width="2"/>
<path d="M72.0659 44.6481C71.7503 44.4235 71.5146 44.1393 71.3588 43.7953C71.339 43.7509 71.3093 43.7115 71.272 43.68C71.2347 43.6485 71.1907 43.6257 71.1433 43.6132C69.6219 43.2187 68.847 42.2364 68.8187 40.6664C68.7863 38.8901 68.7752 35.1977 68.7853 29.5894C68.7873 28.8934 68.7175 28.3998 68.5759 28.1084C68.2947 27.5278 67.7899 27.2749 67.0615 27.3497" stroke="#FAD7BA" stroke-width="2"/>
<path d="M40.3311 35.6318C39.6938 34.9237 38.9624 34.5828 38.1369 34.6091C38.0358 34.6111 37.9427 34.5848 37.8577 34.5302C37.2042 34.0952 36.5325 33.6936 35.8426 33.3254C34.8735 32.8075 34.2058 32.3978 33.8396 32.0963C31.7092 30.3523 30.6642 28.1015 30.7047 25.3439C30.8241 17.2288 30.8241 10.9336 30.7047 6.45831C30.6865 5.83112 30.4882 5.41939 30.1099 5.22314" stroke="#FAD7BA" stroke-width="2"/>
<path d="M41.1046 18.7431L40.3186 17.9692" stroke="#FBE2CE" stroke-width="2"/>
<path d="M2.75396 23.6204C2.41608 24.9152 2.37764 26.296 2.63863 27.7629" stroke="#968483" stroke-width="2"/>
<path d="M2.63867 27.7625C3.48235 31.1594 5.54702 33.5266 8.8327 34.8639C10.8114 35.6681 13.2089 35.4466 15.3029 35.3707C15.8714 35.3505 16.3175 35.134 16.6412 34.7213C17.4384 33.7097 18.1465 32.9074 18.7656 32.3147" stroke="#927167" stroke-width="2"/>
<path d="M18.7655 32.3147C19.3401 32.3956 19.6365 32.6536 19.6547 33.0886C19.7124 34.2782 19.685 34.9095 18.8778 35.8593C18.0058 36.8871 17.0508 37.9169 16.0129 38.9488" stroke="#968483" stroke-width="2"/>
<path d="M16.013 38.949C13.5953 39.0481 12.2034 40.0061 11.8372 41.8229" stroke="#978F97" stroke-width="2"/>
<path d="M11.837 41.823C11.661 43.2454 12.1061 44.3328 13.1723 45.0855C15.3604 46.6271 17.7215 45.7015 19.4118 43.9413C20.7998 42.4988 22.131 41.0036 23.4056 39.4559C24.5831 38.0265 25.0414 36.9188 24.7652 35.1465" stroke="#927167" stroke-width="2"/>
<path d="M24.7653 35.1461L24.7593 30.7517" stroke="#968483" stroke-width="2"/>
<path d="M24.7593 30.7521C25.0931 27.6566 22.6289 25.4078 19.585 26.2818" stroke="#978F97" stroke-width="2"/>
<path d="M19.585 26.2815C18.7049 26.587 18.0039 27.0007 17.4819 27.5227C16.4824 28.5222 15.663 29.2121 15.0237 29.5924C10.426 32.3177 5.54299 25.456 10.5018 22.6094" stroke="#968483" stroke-width="2"/>
<path d="M10.5017 22.6096C11.0257 22.3465 11.6893 22.2171 12.4925 22.2211C15.4262 22.2312 18.3598 22.2434 21.2935 22.2575C22.9808 22.2666 24.6196 21.3501 24.389 19.4321" stroke="#927167" stroke-width="2"/>
<path d="M24.3892 19.4319C24.5137 17.5352 22.5714 16.4244 20.9174 16.4153C18.5017 16.4032 16.086 16.3941 13.6703 16.388C11.7786 16.384 10.3492 16.5226 9.38215 16.8038C6.0985 17.7648 3.88917 20.0369 2.75415 23.62" stroke="#978F97" stroke-width="2"/>
<path d="M24.3891 19.4321L23.3118 19.6688" stroke="#FBE2CE" stroke-width="2"/>
<path d="M23.3119 19.6689C22.9052 18.3417 22.1313 17.668 20.9903 17.6477C18.6069 17.6053 15.908 17.6204 12.8934 17.6933C11.3275 17.7297 10.1176 17.9037 9.2638 18.2153C6.81775 19.1075 4.82389 20.98 4.3626 23.6718C4.35479 23.7214 4.33062 23.767 4.29385 23.8015C4.25709 23.8361 4.20977 23.8577 4.15926 23.863C3.6919 23.9136 3.22353 23.8327 2.75415 23.6202" stroke="#FEF5EA" stroke-width="2"/>
<path d="M23.3118 19.6689C22.5794 20.0736 21.8824 20.2739 21.2208 20.2698C18.1597 20.2516 15.0986 20.2526 12.0375 20.2729C11.291 20.2789 10.6071 20.4671 9.98599 20.8373C9.89236 20.8934 9.81278 20.9701 9.75332 21.0616C9.69387 21.1531 9.65611 21.257 9.64293 21.3654C9.62976 21.4737 9.64152 21.5836 9.6773 21.6867C9.71309 21.7898 9.77196 21.8834 9.84942 21.9602L10.5019 22.6097" stroke="#FAD7BA" stroke-width="2"/>
<path d="M19.585 26.2817L19.9552 27.0678C19.9977 27.1568 20.0685 27.2023 20.1676 27.2043C22.0593 27.2407 23.2095 28.1421 23.6182 29.9083C23.773 30.576 24.0674 30.8582 24.7593 30.752" stroke="#FEF5EA" stroke-width="2"/>
<path d="M24.7654 35.1465C24.118 35.4742 23.7043 35.7575 23.5242 35.9962C22.0837 37.9203 20.5592 39.7796 18.9507 41.5742C17.9209 42.7234 17.0692 43.4285 16.3954 43.6894C15.0622 44.2074 13.8644 43.7542 12.8022 42.3299" stroke="#FAD7BA" stroke-width="2"/>
<path d="M12.8022 42.3297C13.3323 41.2797 14.1092 40.5665 15.133 40.1902C15.4405 40.0789 15.661 39.9373 15.7946 39.7653C16.0454 39.4436 16.1183 39.1715 16.0131 38.949" stroke="#FEF5EA" stroke-width="2"/>
<path d="M18.7656 32.3148L19.6396 31.459C19.7157 31.3841 19.7729 31.2922 19.8065 31.1908C19.84 31.0895 19.849 30.9816 19.8327 30.8761C19.8164 30.7706 19.7753 30.6704 19.7127 30.5839C19.6501 30.4975 19.5678 30.4271 19.4727 30.3786C19.064 30.1702 18.6806 30.2117 18.3225 30.503C17.4768 31.1909 16.6584 31.9092 15.8674 32.6578C15.3454 33.1494 14.7253 33.4205 14.007 33.4711C9.52362 33.7887 6.31685 32.0316 4.38672 28.1996C3.9315 27.2953 3.452 27.3256 2.63867 27.7626" stroke="#FAD7BA" stroke-width="2"/>
<path d="M11.8372 41.8228L12.8022 42.3296" stroke="#FBE2CE" stroke-width="2"/>
<path d="M37.721 25.1648C37.6785 27.4682 40.0153 28.6882 41.6147 26.9948" stroke="#857291" stroke-width="2"/>
<path d="M41.6148 26.9948C42.0437 26.5052 42.1388 26.0156 41.9 25.5259C41.4266 24.5548 39.8455 24.3393 39.0231 23.6171C38.4667 23.1274 38.0711 22.5225 37.8365 21.8022C37.8304 21.7887 37.8201 21.7776 37.8071 21.7706C37.7941 21.7637 37.7791 21.7612 37.7645 21.7636C37.7499 21.766 37.7366 21.7732 37.7265 21.7841C37.7165 21.7949 37.7103 21.8088 37.709 21.8235L37.7211 25.1648" stroke="#6E5B8B" stroke-width="2"/>
<path d="M41.6147 26.9948C40.2703 26.0843 38.8712 26.5547 37.9274 24.9705C37.9185 24.9549 37.9056 24.9418 37.8899 24.9329C37.8743 24.9239 37.8565 24.9194 37.8385 24.9197C37.8205 24.92 37.8029 24.9252 37.7875 24.9347C37.7722 24.9441 37.7597 24.9576 37.7514 24.9736C37.717 25.0343 37.7069 25.098 37.721 25.1648" stroke="#C5AFEB" stroke-width="2"/>
<path d="M26.4103 22.0907C25.8337 23.0476 25.0315 23.7517 24.0037 24.2029C23.8337 24.2798 23.8287 24.3657 23.9885 24.4608C24.9819 25.0476 25.7659 25.8376 26.3405 26.831C26.4538 27.0273 26.5094 27.0121 26.5074 26.7855L26.4558 22.1028C26.4559 22.0974 26.4542 22.0921 26.4509 22.0878C26.4476 22.0834 26.443 22.0803 26.4378 22.0789C26.4326 22.0775 26.427 22.0779 26.422 22.0801C26.417 22.0822 26.4129 22.0859 26.4103 22.0907Z" stroke="#6E5B8B" stroke-width="2"/>
<path d="M11.0208 26.7366C12.1011 28.1782 13.6216 27.7472 14.7323 26.6152" stroke="#857291" stroke-width="2"/>
<path d="M14.7324 26.6153L16.8052 24.8308C16.9023 24.7478 16.8871 24.7054 16.7596 24.7033C15.398 24.6831 14.0405 24.6952 12.6869 24.7398C11.3911 24.7792 10.5049 25.2799 11.0208 26.7367" stroke="#6E5B8B" stroke-width="2"/>
<path d="M14.7323 26.6154C13.484 26.2148 12.2468 26.2553 11.0208 26.7368" stroke="#C5AFEB" stroke-width="2"/>
<path d="M27.4087 35.0369L27.4299 38.6392C27.4299 38.7274 27.4598 38.813 27.5149 38.882C31.3691 43.6203 36.2258 46.2322 42.085 46.7178C50.7018 47.432 57.6626 44.4093 62.9675 37.6498" stroke="#857291" stroke-width="2"/>
<path d="M62.9675 37.6502C63.6756 36.6224 64.1621 35.535 64.4272 34.3878C64.4596 34.2482 64.4252 34.229 64.324 34.3301C61.2548 37.4155 57.6242 38.6102 53.4321 37.9142C51.2835 37.5592 49.3958 36.4697 47.7145 35.1162C47.6356 35.0534 47.5598 35.0565 47.4869 35.1253C42.2974 40.0174 33.5906 38.8611 29.1082 33.6352C28.5498 32.9797 28.1006 31.9873 27.5635 31.2043C27.4765 31.0789 27.433 31.092 27.433 31.2437L27.4087 35.0372" stroke="#6E5B8B" stroke-width="2"/>
<path d="M62.9675 37.65C62.9958 37.5185 62.9685 37.4204 62.8856 37.3556C62.846 37.3241 62.7978 37.3049 62.7471 37.3006C62.6964 37.2963 62.6453 37.307 62.6003 37.3313C60.919 38.2539 59.0465 39.477 57.2955 39.9018C53.9734 40.7091 50.8769 40.0738 48.0059 37.996C47.9213 37.9343 47.8193 37.9011 47.7146 37.9011C47.6099 37.9011 47.5079 37.9343 47.4233 37.996C42.8498 41.2978 36.3887 40.9883 31.5664 38.4239C29.9458 37.562 28.7016 36.3602 27.8336 34.8185C27.8116 34.7797 27.7794 34.7477 27.7406 34.7258C27.7017 34.7039 27.6576 34.6929 27.613 34.6942C27.5684 34.6954 27.525 34.7088 27.4874 34.7328C27.4498 34.7569 27.4195 34.7907 27.3996 34.8307C27.3814 34.8651 27.3845 34.9339 27.4087 35.037" stroke="#C5AFEB" stroke-width="2"/>
<path d="M54.0785 22.124C52.4074 23.1012 51.59 24.3566 51.6264 25.8902C51.7175 29.8961 57.1194 31.6897 59.1649 27.9599C59.705 26.9767 59.8153 25.873 59.4956 24.649" stroke="#968483" stroke-width="2"/>
<path d="M59.4956 24.6488C60.3696 25.3468 61.2467 24.6245 60.8491 23.7444C60.1936 22.2999 59.1618 21.2094 57.7536 20.4729C56.5519 19.8447 54.9191 19.6566 53.8175 20.4335C53.0649 20.9635 53.1519 21.527 54.0785 22.1238" stroke="#FAD7BA" stroke-width="2"/>
<path d="M59.4955 24.649C58.3989 22.1948 56.5932 21.3532 54.0784 22.124" stroke="#927167" stroke-width="2"/>
<path d="M74.1266 22.5156C71.8019 24.033 71.7443 27.5837 74.0993 29.0162C77.0916 30.831 80.4632 28.2514 79.7865 24.9465" stroke="#968483" stroke-width="2"/>
<path d="M79.7864 24.9463C80.715 25.2579 81.1693 25.0869 81.149 24.4334C81.1369 23.9903 80.9224 23.4704 80.5056 22.8735C79.4354 21.342 78.0576 20.4588 76.3722 20.2242C75.4041 20.0876 73.2221 20.3213 73.3678 21.7567C73.3724 21.804 73.3894 21.8492 73.4171 21.8881C73.4448 21.9269 73.4822 21.958 73.5256 21.9783C73.8331 22.128 74.0334 22.307 74.1265 22.5154" stroke="#FAD7BA" stroke-width="2"/>
<path d="M79.7861 24.9465C78.906 22.6098 76.4964 21.0408 74.1262 22.5157" stroke="#927167" stroke-width="2"/>
<path d="M4.42614 25.9477C4.42614 25.765 4.35356 25.5898 4.22436 25.4606C4.09517 25.3314 3.91994 25.2588 3.73724 25.2588C3.64677 25.2588 3.55719 25.2766 3.47361 25.3112C3.39003 25.3458 3.31408 25.3966 3.25011 25.4606C3.18614 25.5245 3.1354 25.6005 3.10078 25.6841C3.06616 25.7676 3.04834 25.8572 3.04834 25.9477C3.04834 26.0382 3.06616 26.1277 3.10078 26.2113C3.1354 26.2949 3.18614 26.3708 3.25011 26.4348C3.31408 26.4988 3.39003 26.5495 3.47361 26.5842C3.55719 26.6188 3.64677 26.6366 3.73724 26.6366C3.91994 26.6366 4.09517 26.564 4.22436 26.4348C4.35356 26.3056 4.42614 26.1304 4.42614 25.9477Z" stroke="#968483" stroke-width="2"/>
<path d="M54.2878 26.7154C55.0162 27.7442 56.4395 27.8019 57.0738 26.6638" stroke="#857291" stroke-width="2"/>
<path d="M57.074 26.6642C57.3613 25.7416 57.1256 25.0476 56.3669 24.5823C54.9679 23.7265 53.5901 25.3349 54.2881 26.7157" stroke="#6E5B8B" stroke-width="2"/>
<path d="M57.0738 26.664C55.9914 25.794 55.0627 25.8112 54.2878 26.7156" stroke="#C5AFEB" stroke-width="2"/>
<path d="M75.1733 26.7705C75.491 27.076 75.9472 27.2065 76.542 27.162" stroke="#857291" stroke-width="2"/>
<path d="M76.5418 27.1618C77.7983 26.041 77.7072 25.1538 76.2687 24.5003C76.1736 24.4578 76.0765 24.4497 75.9774 24.476C74.8282 24.7937 74.5601 25.5584 75.1732 26.7703" stroke="#6E5B8B" stroke-width="2"/>
<path d="M76.542 27.1619C76.6088 26.7148 76.5461 26.4548 76.3539 26.382C75.751 26.1574 75.3575 26.2869 75.1733 26.7704" stroke="#C5AFEB" stroke-width="2"/>
<path d="M35.1686 5.47522C34.6224 5.77263 34.24 5.48432 33.9729 4.97447C33.2355 3.57543 31.9973 3.06559 30.8713 4.47677C30.6164 4.79643 30.3625 5.04529 30.1096 5.22333C29.705 5.05338 29.355 5.01797 29.0596 5.11711C29.6423 3.34883 30.6721 2.46166 32.149 2.45559C33.9395 2.44952 35.2415 3.62095 35.1686 5.47522Z" fill="#FFFFFE"/>
<path d="M66.6425 18.015C66.5758 18.4278 66.3603 18.7677 65.9961 19.0347C65.9091 19.0974 65.8363 19.0843 65.7776 18.9953C61.9629 13.3202 54.4153 11.9151 48.804 15.8087C48.715 15.8694 48.63 15.8644 48.5491 15.7935C45.7297 13.305 41.1654 13.2079 38.5342 16.0636C38.3643 16.2488 38.1488 16.6585 37.9121 16.9073C37.8028 17.0206 37.7482 16.9984 37.7482 16.8406L37.6875 4.07315C42.7374 2.86934 47.6396 3.20722 52.3942 5.08677C58.6823 7.57126 63.4317 11.8807 66.6425 18.015Z" fill="#DBC6F1"/>
<path d="M35.1689 5.47502C35.2114 11.6073 35.2195 17.7397 35.1932 23.872C35.1871 25.5775 35.3328 26.7894 35.6302 27.5077C37.0292 30.8975 42.2309 31.3467 43.9941 27.8354C44.5201 26.7894 44.5818 25.6079 44.1792 24.2908C45.0957 24.4061 45.5165 24.1542 45.4417 23.5351C45.1807 21.3865 41.7271 21.0071 41.1049 18.7432C44.9379 15.2107 46.7861 20.9646 48.3672 20.1392C48.5271 20.0562 48.6313 19.9146 48.6798 19.7143C48.7466 19.4533 48.7334 19.2631 48.6404 19.1438L51.2048 17.2682C51.1076 18.1241 51.6934 18.1908 52.3398 17.9754C58.2819 15.9997 63.608 19.5504 64.3454 25.7111C64.3607 25.8377 64.4254 25.9531 64.5255 26.0322C64.6256 26.1112 64.7529 26.1474 64.8796 26.1329C65.3206 26.0864 65.53 25.8223 65.5078 25.3408C65.4855 24.8856 65.4764 24.4769 65.4805 24.1148C66.3059 24.2766 66.8026 24.0288 66.9706 23.3712C67.3469 21.8963 68.0186 20.5428 68.9857 19.3107C69.1617 19.687 69.4277 19.9197 69.7838 20.0087C69.8829 20.035 69.974 20.0178 70.0569 19.9571C71.5652 18.8767 72.6942 17.9025 74.6304 17.6537C79.6621 17.0103 83.753 20.7218 84.3873 25.5715C84.4358 25.9417 84.5259 26.1612 84.6574 26.23C84.8617 26.3372 85.1591 26.2422 85.5496 25.9447C85.323 28.9775 84.1516 31.3963 82.0353 33.2009C79.9858 34.949 77.4922 35.7087 74.5545 35.4801C73.6046 35.4073 73.4256 36.1963 73.4438 37.0005C73.4782 38.6312 73.4782 40.2569 73.4438 41.8774C73.4175 43.0812 72.9582 44.0048 72.066 44.6482C71.7504 44.4236 71.5147 44.1394 71.3589 43.7954C71.339 43.751 71.3094 43.7116 71.2721 43.6801C71.2348 43.6486 71.1908 43.6258 71.1434 43.6134C69.622 43.2188 68.8471 42.2366 68.8187 40.6666C68.7864 38.8902 68.7752 35.1978 68.7854 29.5895C68.7874 28.8936 68.7176 28.3999 68.576 28.1086C68.2947 27.5279 67.7899 27.275 67.0616 27.3499C66.4769 26.7105 65.8962 26.668 65.3196 27.2224C65.2484 27.2917 65.1988 27.3803 65.177 27.4773C63.3743 35.5681 53.5173 38.873 48.2216 31.635C47.8635 31.1464 47.3445 31.4074 47.035 31.8201C45.3142 34.0962 43.3325 35.4922 40.3311 35.6318C39.6938 34.9237 38.9624 34.5828 38.1369 34.6091C38.0358 34.6111 37.9427 34.5848 37.8577 34.5302C37.2042 34.0952 36.5325 33.6936 35.8426 33.3254C34.8735 32.8074 34.2058 32.3977 33.8396 32.0963C31.7092 30.3523 30.6642 28.1015 30.7047 25.3439C30.8241 17.2288 30.8241 10.9336 30.7047 6.45829C30.6865 5.8311 30.4882 5.41938 30.1099 5.22313C30.3628 5.04509 30.6167 4.79623 30.8716 4.47657C31.9975 3.06538 33.2357 3.57523 33.9732 4.97427C34.2402 5.48412 34.6226 5.77243 35.1689 5.47502ZM54.0787 22.1239C52.4076 23.1011 51.5902 24.3565 51.6266 25.8901C51.7176 29.8961 57.1196 31.6896 59.165 27.9599C59.7052 26.9766 59.8155 25.8729 59.4958 24.6489C60.3699 25.3469 61.2469 24.6246 60.8494 23.7445C60.1938 22.2999 59.162 21.2094 57.7539 20.473C56.5521 19.8448 54.9194 19.6566 53.8177 20.4335C53.0651 20.9636 53.1521 21.5271 54.0787 22.1239ZM74.1266 22.5154C71.802 24.0328 71.7443 27.5835 74.0993 29.016C77.0916 30.8308 80.4633 28.2512 79.7865 24.9463C80.7152 25.2579 81.1694 25.0869 81.1491 24.4334C81.137 23.9903 80.9225 23.4704 80.5058 22.8735C79.4355 21.342 78.0577 20.4588 76.3724 20.2241C75.4043 20.0876 73.2222 20.3213 73.3679 21.7567C73.3726 21.804 73.3896 21.8492 73.4172 21.8881C73.4449 21.9269 73.4823 21.958 73.5257 21.9783C73.8332 22.128 74.0335 22.307 74.1266 22.5154Z" fill="#FDEAD5"/>
<path d="M29.0598 5.11729C29.3552 5.01815 29.7052 5.05356 30.1098 5.2235C30.4882 5.41975 30.6865 5.83148 30.7047 6.45867C30.824 10.934 30.824 17.2292 30.7047 25.3442C30.6642 28.1019 31.7092 30.3527 33.8396 32.0967C34.2058 32.3981 34.8735 32.8078 35.8426 33.3258C36.5325 33.694 37.2042 34.0956 37.8577 34.5306C37.9427 34.5852 38.0357 34.6115 38.1369 34.6095C38.9624 34.5832 39.6937 34.9241 40.3311 35.6322C37.0353 36.0186 34.2301 35.1163 31.9156 32.9252C29.9409 31.0557 28.9597 28.6542 28.9718 25.7205C28.9981 18.8154 29.0274 11.9476 29.0598 5.11729Z" fill="#F6C49E"/>
<path d="M26.4405 8.98315L26.4223 16.9252C26.4223 17.0932 26.3758 17.1073 26.2827 16.9677C25.1153 15.246 23.5008 14.2283 21.4392 13.9147C21.3542 13.94 21.2935 14.0361 21.2935 14.0361C21.2935 14.0361 21.4452 13.8843 21.6061 13.7508C21.7487 13.5808 21.692 13.6537 21.7487 13.5808C23.0375 11.8915 24.6379 10.3731 26.4405 8.98315Z" fill="#DBC6F1"/>
<path d="M65.4804 24.1151C65.4763 24.4772 65.4854 24.8859 65.5077 25.3412C65.53 25.8227 65.3206 26.0867 64.8795 26.1332C64.7528 26.1478 64.6255 26.1116 64.5254 26.0325C64.4253 25.9535 64.3606 25.838 64.3454 25.7114C63.6079 19.5508 58.2818 16 52.3397 17.9757C51.6933 18.1912 51.1076 18.1244 51.2047 17.2686C52.0706 16.7567 52.7615 16.4644 53.2775 16.3915C59.5878 15.4811 63.6555 18.0556 65.4804 24.1151Z" fill="#FFFFFE"/>
<path d="M85.5493 25.9447C85.1588 26.2421 84.8614 26.3372 84.6571 26.23C84.5256 26.1612 84.4355 25.9416 84.387 25.5714C83.7527 20.7218 79.6618 17.0102 74.6301 17.6536C72.6939 17.9025 71.5649 18.8766 70.0566 19.957C69.9737 20.0177 69.8826 20.0349 69.7835 20.0086C69.4274 19.9196 69.1614 19.6869 68.9854 19.3106C70.6039 17.5686 72.5179 16.5823 74.7272 16.3517C76.7221 16.1433 78.6694 16.554 80.5692 17.5838C83.6384 19.2489 85.2984 22.0359 85.5493 25.9447Z" fill="#FFFFFE"/>
<path d="M24.3892 19.4319L23.3119 19.6686C22.9052 18.3414 22.1313 17.6677 20.9903 17.6475C18.6069 17.605 15.908 17.6202 12.8934 17.693C11.3275 17.7294 10.1176 17.9034 9.2638 18.215C6.81775 19.1072 4.82389 20.9797 4.3626 23.6715C4.35479 23.7211 4.33062 23.7667 4.29385 23.8012C4.25709 23.8358 4.20977 23.8574 4.15926 23.8627C3.6919 23.9133 3.22353 23.8324 2.75415 23.62C3.88917 20.0369 6.0985 17.7648 9.38215 16.8038C10.3492 16.5226 11.7786 16.384 13.6703 16.388C16.086 16.3941 18.5017 16.4032 20.9174 16.4153C22.5714 16.4244 24.5137 17.5352 24.3892 19.4319Z" fill="#FFFFFE"/>
<path d="M48.64 19.1438C48.7331 19.2632 48.7462 19.4534 48.6795 19.7144C48.6309 19.9147 48.5267 20.0563 48.3669 20.1392C46.7858 20.9647 44.9376 15.2107 41.1046 18.7432L40.3186 17.9693C40.3995 17.7508 40.5118 17.5839 40.6555 17.4686C43.1713 15.3989 46.0908 16.3609 47.8844 18.7736C47.9693 18.8848 48.2212 19.0083 48.64 19.1438Z" fill="#FFFFFE"/>
<path d="M23.3117 19.6689C22.5793 20.0736 21.8823 20.2739 21.2207 20.2698C18.1596 20.2516 15.0985 20.2526 12.0374 20.2729C11.2908 20.2789 10.607 20.4671 9.98589 20.8373C9.89226 20.8934 9.81267 20.9701 9.75322 21.0616C9.69376 21.1531 9.656 21.257 9.64283 21.3653C9.62965 21.4737 9.64141 21.5836 9.6772 21.6867C9.71298 21.7898 9.77185 21.8833 9.84932 21.9602L10.5018 22.6096C5.54294 25.4563 10.4259 32.318 15.0237 29.5927C15.663 29.2124 16.4824 28.5225 17.4818 27.523C18.0038 27.001 18.7049 26.5873 19.585 26.2818L19.9552 27.0678C19.9977 27.1568 20.0685 27.2023 20.1676 27.2043C22.0593 27.2408 23.2095 28.1421 23.6182 29.9083C23.773 30.576 24.0674 30.8582 24.7593 30.752L24.7654 35.1464C24.1179 35.4742 23.7042 35.7574 23.5241 35.9962C22.0836 37.9202 20.5591 39.7795 18.9507 41.5741C17.9209 42.7233 17.0691 43.4284 16.3954 43.6894C15.0621 44.2073 13.8644 43.7541 12.8022 42.3298C13.3323 41.2797 14.1092 40.5666 15.1329 40.1902C15.4404 40.079 15.661 39.9373 15.7945 39.7654C16.0454 39.4437 16.1182 39.1716 16.013 38.949C17.0509 37.9172 18.0058 36.8874 18.8778 35.8596C19.6851 34.9097 19.7124 34.2785 19.6548 33.0888C19.6366 32.6538 19.3402 32.3959 18.7656 32.3149L19.6396 31.4591C19.7157 31.3842 19.7728 31.2923 19.8064 31.1909C19.84 31.0896 19.849 30.9817 19.8327 30.8762C19.8164 30.7707 19.7753 30.6706 19.7127 30.5841C19.6501 30.4976 19.5678 30.4272 19.4727 30.3787C19.064 30.1703 18.6806 30.2118 18.3225 30.5032C17.4768 31.1911 16.6584 31.9093 15.8673 32.6579C15.3453 33.1495 14.7252 33.4206 14.007 33.4712C9.52359 33.7888 6.31681 32.0317 4.38668 28.1997C3.93146 27.2954 3.45196 27.3257 2.63863 27.7627C2.37764 26.2959 2.41608 24.9151 2.75396 23.6202C3.22334 23.8327 3.69171 23.9136 4.15907 23.863C4.20958 23.8577 4.25689 23.8361 4.29366 23.8015C4.33042 23.767 4.35459 23.7214 4.3624 23.6718C4.82369 20.98 6.81755 19.1075 9.2636 18.2153C10.1174 17.9037 11.3273 17.7297 12.8932 17.6933C15.9078 17.6204 18.6067 17.6053 20.9901 17.6477C22.1312 17.668 22.905 18.3417 23.3117 19.6689ZM4.42613 25.9479C4.42613 25.7652 4.35355 25.59 4.22435 25.4608C4.09516 25.3316 3.91994 25.259 3.73723 25.259C3.64676 25.259 3.55718 25.2768 3.4736 25.3115C3.39002 25.3461 3.31407 25.3968 3.2501 25.4608C3.18613 25.5248 3.13539 25.6007 3.10077 25.6843C3.06615 25.7679 3.04833 25.8575 3.04833 25.9479C3.04833 26.0384 3.06615 26.128 3.10077 26.2116C3.13539 26.2951 3.18613 26.3711 3.2501 26.4351C3.31407 26.499 3.39002 26.5498 3.4736 26.5844C3.55718 26.619 3.64676 26.6368 3.73723 26.6368C3.91994 26.6368 4.09516 26.5642 4.22435 26.4351C4.35355 26.3059 4.42613 26.1306 4.42613 25.9479Z" fill="#FDEAD5"/>
<path d="M40.3188 17.9692L41.1048 18.7431C41.727 21.0071 45.1806 21.3864 45.4416 23.5351C45.5164 24.1542 45.0956 24.406 44.1791 24.2907C43.9889 24.0135 43.7704 23.7263 43.5236 23.4288C42.6313 22.3545 40.9318 22.4031 40.2611 21.0981C39.7776 20.1594 39.7968 19.1164 40.3188 17.9692Z" fill="#F6C49E"/>
<path d="M24.3892 19.4324C24.6198 21.3504 22.981 22.2669 21.2937 22.2578C18.36 22.2436 15.4264 22.2315 12.4927 22.2214C11.6895 22.2173 11.0259 22.3468 10.5019 22.6098L9.84942 21.9604C9.77196 21.8835 9.71309 21.7899 9.6773 21.6868C9.64152 21.5837 9.62976 21.4738 9.64293 21.3655C9.65611 21.2572 9.69387 21.1533 9.75332 21.0618C9.81278 20.9703 9.89236 20.8935 9.98599 20.8375C10.6071 20.4672 11.291 20.2791 12.0375 20.273C15.0986 20.2528 18.1597 20.2518 21.2208 20.27C21.8824 20.274 22.5794 20.0737 23.3118 19.6691L24.3892 19.4324Z" fill="#F6C49E"/>
<path d="M59.4956 24.6488C58.399 22.1947 56.5933 21.353 54.0785 22.1238C53.1519 21.527 53.0649 20.9635 53.8175 20.4335C54.9191 19.6566 56.5519 19.8447 57.7536 20.4729C59.1618 21.2094 60.1936 22.2999 60.8491 23.7444C61.2467 24.6245 60.3696 25.3468 59.4956 24.6488Z" fill="#F6C49E"/>
<path d="M79.7861 24.9463C78.9061 22.6095 76.4964 21.0405 74.1262 22.5154C74.0332 22.307 73.8329 22.128 73.5254 21.9783C73.4819 21.958 73.4445 21.9269 73.4169 21.8881C73.3892 21.8492 73.3722 21.804 73.3675 21.7567C73.2219 20.3213 75.4039 20.0876 76.372 20.2242C78.0573 20.4588 79.4351 21.342 80.5054 22.8735C80.9222 23.4704 81.1366 23.9903 81.1488 24.4334C81.169 25.0869 80.7148 25.2579 79.7861 24.9463Z" fill="#F6C49E"/>
<path d="M41.6145 26.9948C40.2701 26.0843 38.8711 26.5547 37.9272 24.9706C37.9184 24.9549 37.9054 24.9419 37.8898 24.9329C37.8741 24.924 37.8564 24.9194 37.8383 24.9197C37.8203 24.92 37.8027 24.9252 37.7874 24.9347C37.772 24.9442 37.7596 24.9576 37.7512 24.9736C37.7168 25.0343 37.7067 25.098 37.7209 25.1648L37.7087 21.8235C37.7101 21.8088 37.7162 21.7949 37.7263 21.7841C37.7363 21.7732 37.7497 21.766 37.7643 21.7636C37.7788 21.7612 37.7938 21.7637 37.8068 21.7706C37.8198 21.7776 37.8302 21.7887 37.8362 21.8022C38.0709 22.5225 38.4664 23.1274 39.0228 23.6171C39.8452 24.3393 41.4264 24.5548 41.8998 25.5259C42.1385 26.0156 42.0434 26.5052 41.6145 26.9948Z" fill="#AE97E5"/>
<path d="M59.4956 24.649C59.8153 25.873 59.705 26.9767 59.1649 27.96C57.1194 31.6897 51.7175 29.8962 51.6264 25.8902C51.59 24.3566 52.4074 23.1012 54.0785 22.124C56.5934 21.3532 58.3991 22.1948 59.4956 24.649ZM54.2879 26.7157C55.0163 27.7445 56.4396 27.8021 57.0739 26.6641C57.3612 25.7415 57.1255 25.0476 56.3668 24.5822C54.9677 23.7264 53.5899 25.3348 54.2879 26.7157Z" fill="#2E1E30"/>
<path d="M79.7865 24.9465C80.4632 28.2514 77.0916 30.831 74.0993 29.0162C71.7443 27.5838 71.8019 24.0331 74.1266 22.5157C76.4968 21.0408 78.9064 22.6098 79.7865 24.9465ZM75.1736 26.7705C75.4912 27.076 75.9475 27.2065 76.5423 27.162C77.7987 26.0411 77.7076 25.1539 76.2692 24.5004C76.1741 24.4579 76.077 24.4499 75.9778 24.4762C74.8286 24.7938 74.5606 25.5586 75.1736 26.7705Z" fill="#2E1E30"/>
<path d="M26.4103 22.0907C26.4129 22.0859 26.417 22.0822 26.422 22.0801C26.427 22.0779 26.4326 22.0775 26.4378 22.0789C26.443 22.0803 26.4476 22.0834 26.4509 22.0878C26.4542 22.0921 26.4559 22.0974 26.4558 22.1028L26.5074 26.7855C26.5094 27.0121 26.4538 27.0273 26.3405 26.831C25.7659 25.8376 24.9819 25.0476 23.9885 24.4608C23.8287 24.3657 23.8337 24.2798 24.0037 24.2029C25.0315 23.7517 25.8337 23.0476 26.4103 22.0907Z" fill="#AE97E5"/>
<path d="M57.074 26.6642C55.9916 25.7942 55.063 25.8114 54.2881 26.7157C53.5901 25.3349 54.9679 23.7265 56.3669 24.5823C57.1256 25.0476 57.3613 25.7416 57.074 26.6642Z" fill="#AE97E5"/>
<path d="M76.5418 27.1618C76.6086 26.7147 76.5459 26.4547 76.3537 26.3819C75.7508 26.1573 75.3573 26.2868 75.1732 26.7703C74.5601 25.5584 74.8282 24.7937 75.9774 24.476C76.0765 24.4497 76.1736 24.4578 76.2687 24.5003C77.7072 25.1538 77.7983 26.041 76.5418 27.1618Z" fill="#AE97E5"/>
<path d="M14.7324 26.6153C13.4841 26.2147 12.2469 26.2551 11.0208 26.7367C10.5049 25.2799 11.3911 24.7792 12.6869 24.7398C14.0405 24.6952 15.398 24.6831 16.7596 24.7033C16.8871 24.7054 16.9023 24.7478 16.8052 24.8308L14.7324 26.6153Z" fill="#AE97E5"/>
<path d="M41.6147 26.9948C40.0153 28.6882 37.6786 27.4682 37.721 25.1648C37.7069 25.098 37.717 25.0343 37.7514 24.9736C37.7597 24.9576 37.7722 24.9441 37.7875 24.9347C37.8029 24.9252 37.8205 24.92 37.8385 24.9197C37.8565 24.9194 37.8743 24.9239 37.8899 24.9329C37.9056 24.9418 37.9185 24.9549 37.9274 24.9705C38.8712 26.5547 40.2703 26.0843 41.6147 26.9948Z" fill="#DBC6F1"/>
<path d="M3.73724 26.6366C4.11771 26.6366 4.42614 26.3282 4.42614 25.9477C4.42614 25.5672 4.11771 25.2588 3.73724 25.2588C3.35677 25.2588 3.04834 25.5672 3.04834 25.9477C3.04834 26.3282 3.35677 26.6366 3.73724 26.6366Z" fill="#FDEAD5"/>
<path d="M57.0738 26.6642C56.4395 27.8023 55.0162 27.7446 54.2878 26.7158C55.0627 25.8115 55.9914 25.7943 57.0738 26.6642Z" fill="#DBC6F1"/>
<path d="M24.7593 30.7521C24.0674 30.8583 23.773 30.576 23.6182 29.9084C23.2095 28.1421 22.0593 27.2408 20.1676 27.2044C20.0685 27.2023 19.9977 27.1568 19.9552 27.0678L19.585 26.2818C22.6289 25.4078 25.0931 27.6566 24.7593 30.7521Z" fill="#FFFFFE"/>
<path d="M76.542 27.1619C75.9472 27.2064 75.491 27.0759 75.1733 26.7704C75.3575 26.2869 75.751 26.1574 76.3539 26.382C76.5461 26.4548 76.6088 26.7148 76.542 27.1619Z" fill="#DBC6F1"/>
<path d="M14.7323 26.6154C13.6216 27.7474 12.1011 28.1783 11.0208 26.7368C12.2468 26.2553 13.484 26.2148 14.7323 26.6154Z" fill="#DBC6F1"/>
<path d="M67.0615 27.3497C67.7899 27.2749 68.2947 27.5278 68.5759 28.1084C68.7175 28.3998 68.7873 28.8934 68.7853 29.5894C68.7752 35.1977 68.7863 38.8901 68.8187 40.6664C68.847 42.2364 69.6219 43.2187 71.1433 43.6132C71.1907 43.6257 71.2347 43.6485 71.272 43.68C71.3093 43.7115 71.339 43.7509 71.3588 43.7953C71.5146 44.1393 71.7503 44.4235 72.0659 44.6481C71.2404 45.2105 70.3674 45.3026 69.4469 44.9243C67.8546 44.2667 67.0666 43.0417 67.0828 41.2491C67.1212 36.5937 67.1141 31.9606 67.0615 27.3497Z" fill="#F6C49E"/>
<path d="M18.7656 32.3148C18.1465 32.9076 17.4384 33.7098 16.6412 34.7214C16.3175 35.1342 15.8714 35.3506 15.3029 35.3709C13.2089 35.4467 10.8114 35.6683 8.8327 34.8641C5.54702 33.5267 3.48235 31.1596 2.63867 27.7626C3.452 27.3256 3.9315 27.2953 4.38672 28.1996C6.31685 32.0316 9.52362 33.7887 14.007 33.4711C14.7253 33.4205 15.3454 33.1494 15.8674 32.6578C16.6584 31.9092 17.4768 31.1909 18.3225 30.503C18.6806 30.2117 19.064 30.1702 19.4727 30.3786C19.5678 30.4271 19.6501 30.4975 19.7127 30.5839C19.7753 30.6704 19.8164 30.7706 19.8327 30.8761C19.849 30.9816 19.84 31.0895 19.8065 31.1908C19.7729 31.2922 19.7157 31.3841 19.6396 31.459L18.7656 32.3148Z" fill="#F6C49E"/>
<path d="M62.9675 37.6502C62.9958 37.5187 62.9685 37.4206 62.8856 37.3558C62.846 37.3243 62.7978 37.3051 62.7471 37.3008C62.6964 37.2965 62.6453 37.3072 62.6003 37.3316C60.919 38.2541 59.0465 39.4772 57.2955 39.902C53.9734 40.7093 50.8769 40.074 48.0059 37.9962C47.9213 37.9345 47.8193 37.9013 47.7146 37.9013C47.6099 37.9013 47.5079 37.9345 47.4233 37.9962C42.8498 41.298 36.3887 40.9885 31.5664 38.4241C29.9458 37.5622 28.7016 36.3604 27.8336 34.8187C27.8116 34.7799 27.7794 34.7479 27.7406 34.726C27.7017 34.7041 27.6576 34.6931 27.613 34.6944C27.5684 34.6956 27.525 34.709 27.4874 34.733C27.4498 34.7571 27.4195 34.7909 27.3996 34.8309C27.3814 34.8653 27.3845 34.9341 27.4087 35.0372L27.433 31.2437C27.433 31.092 27.4765 31.0789 27.5635 31.2043C28.1007 31.9873 28.5498 32.9797 29.1082 33.6352C33.5906 38.8611 42.2975 40.0174 47.487 35.1253C47.5598 35.0565 47.6357 35.0534 47.7146 35.1162C49.3959 36.4697 51.2835 37.5592 53.4322 37.9142C57.6242 38.6102 61.2549 37.4155 64.3241 34.3301C64.4252 34.229 64.4596 34.2482 64.4272 34.3878C64.1622 35.535 63.6756 36.6224 62.9675 37.6502Z" fill="#AE97E5"/>
<path d="M62.9675 37.65C57.6627 44.4095 50.7019 47.4322 42.085 46.718C36.2259 46.2324 31.3692 43.6205 27.515 38.8821C27.4599 38.8132 27.4299 38.7276 27.43 38.6393L27.4087 35.037C27.3845 34.9339 27.3814 34.8651 27.3996 34.8307C27.4195 34.7907 27.4498 34.7569 27.4874 34.7328C27.525 34.7088 27.5684 34.6954 27.613 34.6942C27.6576 34.6929 27.7017 34.7039 27.7406 34.7258C27.7794 34.7477 27.8116 34.7797 27.8336 34.8185C28.7016 36.3602 29.9458 37.562 31.5664 38.4239C36.3887 40.9883 42.8498 41.2978 47.4233 37.996C47.5079 37.9343 47.6099 37.9011 47.7146 37.9011C47.8193 37.9011 47.9213 37.9343 48.0059 37.996C50.8769 40.0738 53.9734 40.7091 57.2955 39.9018C59.0465 39.477 60.919 38.2539 62.6003 37.3313C62.6453 37.307 62.6964 37.2963 62.7471 37.3006C62.7978 37.3049 62.846 37.3241 62.8856 37.3556C62.9685 37.4204 62.9958 37.5185 62.9675 37.65Z" fill="#DBC6F1"/>
<path d="M24.7652 35.1465C25.0414 36.9188 24.5831 38.0265 23.4056 39.4559C22.131 41.0036 20.7998 42.4988 19.4118 43.9413C17.7215 45.7015 15.3604 46.6271 13.1723 45.0855C12.1061 44.3328 11.661 43.2454 11.837 41.823L12.802 42.3299C13.8642 43.7542 15.062 44.2074 16.3952 43.6895C17.069 43.4285 17.9207 42.7234 18.9505 41.5742C20.559 39.7796 22.0835 37.9203 23.524 35.9962C23.7041 35.7575 24.1178 35.4742 24.7652 35.1465Z" fill="#F6C49E"/>
<path d="M16.013 38.949C16.1183 39.1715 16.0454 39.4436 15.7945 39.7653C15.661 39.9373 15.4405 40.0789 15.133 40.1902C14.1092 40.5665 13.3323 41.2797 12.8022 42.3297L11.8372 41.8229C12.2034 40.0061 13.5953 39.0481 16.013 38.949Z" fill="#FFFFFE"/>
<path d="M37.6876 4.07301L37.7483 16.8404C37.7483 16.9982 37.8029 17.0205 37.9122 16.9072C38.1489 16.6583 38.3643 16.2486 38.5343 16.0635C41.1655 13.2078 45.7298 13.3049 48.5491 15.7934C48.6301 15.8642 48.715 15.8693 48.804 15.8086C54.4154 11.9149 61.9629 13.32 65.7777 18.9951C65.8364 19.0841 65.9092 19.0973 65.9962 19.0346C66.3604 18.7675 66.5758 18.4276 66.6426 18.0149C67.3436 17.4565 67.9051 16.6947 68.5576 16.2304C71.9242 13.841 75.4577 13.1926 79.1581 14.2851C86.8483 16.5521 90.5174 25.4592 86.0926 32.3118C83.7943 35.8727 80.454 37.7633 76.0717 37.9839C75.9625 37.9879 75.9089 38.0446 75.9109 38.1538C75.9412 40.1477 76.1385 42.5725 75.4678 44.278C74.354 47.1186 70.7942 48.4448 68.0295 47.0883C65.547 45.8683 64.1844 43.0368 64.4667 40.2994C64.5031 39.9575 64.412 39.9191 64.1935 40.1841C61.3914 43.6074 57.9459 46.0757 53.857 47.589C43.9575 51.249 33.0383 49.2005 25.955 41.0915C25.9344 41.0677 25.909 41.0485 25.8805 41.0352C25.852 41.0219 25.8209 41.0147 25.7895 41.0141C25.758 41.0136 25.7267 41.0196 25.6978 41.0319C25.6688 41.0442 25.6427 41.0624 25.6212 41.0854C24.6723 42.1011 23.7022 43.1107 22.7108 44.1142C21.0478 45.7995 20.0372 46.7696 19.6791 47.0245C17.5001 48.5693 14.2286 48.7908 11.9555 47.2673C9.42144 45.5709 8.52921 42.6119 9.90701 39.7896C10.2044 39.1796 10.7689 38.6424 11.2059 38.0567C11.2706 37.9677 11.2484 37.9171 11.1391 37.905C7.14331 37.4882 4.10649 35.6784 2.02867 32.4757C-1.13966 27.5957 -0.556984 21.6051 3.49751 17.5354C6.1823 14.8405 9.64197 13.6134 13.8765 13.8542L21.4393 13.9149C23.5009 14.2285 25.1154 15.2461 26.2828 16.9679C26.3759 17.1075 26.4224 17.0933 26.4224 16.9254L26.4406 8.98332C26.4831 8.2752 26.5064 7.51144 26.5104 6.69205C26.5225 3.73312 27.4815 1.23244 30.4526 0.303791C31.9639 -0.169638 33.3761 -0.0897215 34.6892 0.54354C36.0832 1.21727 37.0826 2.39376 37.6876 4.07301ZM29.0596 5.11698C29.0273 11.9473 28.9979 18.8151 28.9716 25.7202C28.9595 28.6539 29.9407 31.0554 31.9154 32.9249C34.2299 35.116 37.0351 36.0183 40.3309 35.6319C43.3323 35.4923 45.314 34.0963 47.0348 31.8202C47.3443 31.4075 47.8633 31.1465 48.2214 31.6351C53.5171 38.8731 63.3741 35.5682 65.1768 27.4774C65.1986 27.3804 65.2482 27.2918 65.3194 27.2225C65.896 26.6681 66.4767 26.7106 67.0614 27.3499C67.114 31.9608 67.1211 36.5939 67.0826 41.2493C67.0665 43.0419 67.8545 44.2669 69.4468 44.9245C70.3673 45.3028 71.2403 45.2107 72.0658 44.6483C72.958 44.0049 73.4173 43.0813 73.4436 41.8775C73.478 40.2569 73.478 38.6313 73.4436 37.0006C73.4254 36.1964 73.6044 35.4073 74.5543 35.4802C77.492 35.7088 79.9856 34.9491 82.0351 33.201C84.1514 31.3963 85.3228 28.9776 85.5494 25.9448C85.2985 22.036 83.6385 19.249 80.5693 17.5839C78.6695 16.5541 76.7222 16.1434 74.7273 16.3518C72.518 16.5825 70.604 17.5688 68.9855 19.3107C68.0184 20.5429 67.3467 21.8964 66.9704 23.3713C66.8024 24.0288 66.3057 24.2767 65.4803 24.1148C63.6553 18.0554 59.5877 15.4808 53.2773 16.3913C52.7614 16.4641 52.0705 16.7565 51.2046 17.2683L48.6402 19.1438C48.2214 19.0083 47.9695 18.8849 47.8845 18.7736C46.0909 16.3609 43.1715 15.3989 40.6556 17.4686C40.512 17.5839 40.3997 17.7509 40.3187 17.9694C39.7968 19.1165 39.7775 20.1595 40.2611 21.0982C40.9318 22.4032 42.6313 22.3546 43.5235 23.429C43.7703 23.7264 43.9888 24.0137 44.179 24.2908C44.5816 25.608 44.5199 26.7895 43.9939 27.8355C42.2307 31.3468 37.029 30.8976 35.63 27.5077C35.3326 26.7895 35.1869 25.5776 35.193 23.8721C35.2193 17.7397 35.2112 11.6074 35.1687 5.47509C35.2415 3.62083 33.9396 2.44939 32.1491 2.45546C30.6721 2.46153 29.6423 3.34871 29.0596 5.11698ZM2.75398 23.6202C2.41611 24.915 2.37767 26.2958 2.63866 27.7627C3.48233 31.1596 5.54701 33.5268 8.83269 34.8641C10.8114 35.6683 13.2089 35.4468 15.3029 35.3709C15.8714 35.3507 16.3175 35.1342 16.6412 34.7215C17.4384 33.7099 18.1465 32.9077 18.7656 32.3149C19.3402 32.3958 19.6366 32.6537 19.6548 33.0887C19.7125 34.2784 19.6851 34.9096 18.8779 35.8595C18.0059 36.8873 17.0509 37.9171 16.013 38.9489C13.5953 39.0481 12.2033 40.0061 11.8371 41.8229C11.6611 43.2452 12.1062 44.3327 13.1725 45.0853C15.3605 46.627 17.7216 45.7014 19.412 43.9412C20.7999 42.4986 22.1312 41.0035 23.4058 39.4557C24.5833 38.0264 25.0416 36.9187 24.7654 35.1463L24.7593 30.7519C25.0932 27.6564 22.6289 25.4077 19.585 26.2817C18.7049 26.5872 18.0039 27.0009 17.4819 27.5229C16.4824 28.5224 15.663 29.2123 15.0237 29.5926C10.426 32.3179 5.54297 25.4562 10.5018 22.6096C11.0258 22.3466 11.6894 22.2171 12.4927 22.2211C15.4263 22.2312 18.3599 22.2434 21.2936 22.2575C22.9809 22.2666 24.6197 21.3501 24.3891 19.4321C24.5135 17.5354 22.5712 16.4246 20.9173 16.4155C18.5016 16.4034 16.0859 16.3943 13.6702 16.3882C11.7785 16.3842 10.3491 16.5228 9.38199 16.804C6.09833 17.765 3.889 20.0371 2.75398 23.6202ZM37.721 25.1649C37.6785 27.4683 40.0153 28.6883 41.6146 26.9949C42.0435 26.5052 42.1386 26.0156 41.8999 25.526C41.4264 24.5549 39.8453 24.3394 39.0229 23.6171C38.4665 23.1275 38.071 22.5226 37.8363 21.8023C37.8303 21.7888 37.8199 21.7777 37.8069 21.7707C37.7939 21.7637 37.7789 21.7613 37.7643 21.7637C37.7498 21.7661 37.7364 21.7733 37.7264 21.7841C37.7163 21.795 37.7101 21.8088 37.7088 21.8236L37.721 25.1649ZM26.4102 22.0906C25.8336 23.0476 25.0314 23.7517 24.0037 24.2028C23.8337 24.2797 23.8287 24.3657 23.9885 24.4608C24.9819 25.0475 25.7659 25.8376 26.3405 26.831C26.4538 27.0272 26.5094 27.0121 26.5074 26.7855L26.4558 22.1028C26.4559 22.0973 26.4541 22.0921 26.4509 22.0877C26.4476 22.0834 26.443 22.0803 26.4378 22.0789C26.4325 22.0775 26.427 22.0779 26.422 22.08C26.417 22.0822 26.4129 22.0859 26.4102 22.0906ZM11.0208 26.7369C12.1012 28.1784 13.6216 27.7475 14.7323 26.6155L16.8051 24.831C16.9022 24.7481 16.887 24.7056 16.7596 24.7036C15.398 24.6834 14.0404 24.6955 12.6869 24.74C11.391 24.7795 10.5049 25.2802 11.0208 26.7369ZM27.4087 35.0371L27.4299 38.6394C27.4299 38.7276 27.4598 38.8132 27.5149 38.8822C31.3691 43.6205 36.2258 46.2325 42.085 46.718C50.7018 47.4322 57.6626 44.4096 62.9675 37.65C63.6756 36.6223 64.1622 35.5348 64.4272 34.3876C64.4596 34.248 64.4252 34.2288 64.324 34.33C61.2548 37.4154 57.6242 38.6101 53.4321 37.9141C51.2835 37.559 49.3958 36.4695 47.7146 35.116C47.6356 35.0533 47.5598 35.0563 47.4869 35.1251C42.2974 40.0172 33.5906 38.8609 29.1082 33.635C28.5498 32.9795 28.1006 31.9871 27.5635 31.2041C27.4765 31.0787 27.433 31.0918 27.433 31.2436L27.4087 35.0371Z" fill="#2E1E30"/>
</svg>
